<svg aria-hidden="true" style="position:absolute;width:0;height:0" xmlns="http://www.w3.org/2000/svg" overflow="hidden"><defs>
<symbol id="facebook" viewBox="0 0 32 32"><path fill="var(--color1, #fff)" d="M32 16c0 4.418-1.791 8.418-4.686 11.314S20.419 32 16 32s-8.418-1.791-11.314-4.686C1.791 24.419 0 20.419 0 16S1.791 7.582 4.686 4.686 11.581 0 16 0c4.418 0 8.418 1.791 11.314 4.686S32 11.581 32 16z"/><path fill="var(--color2, #afb1b8)" d="M18.422 11.142h1.328V8.829a17.317 17.317 0 00-1.935-.102c-1.915 0-3.226 1.204-3.226 3.418v2.037h-2.113v2.585h2.113v6.505h2.59v-6.505h2.027l.322-2.585h-2.35v-1.781c.001-.747.202-1.259 1.243-1.259z"/></symbol>
<symbol id="in" viewBox="0 0 32 32"><path fill="var(--color1, #fff)" d="M32 16c0 4.418-1.791 8.418-4.686 11.314S20.419 32 16 32s-8.418-1.791-11.314-4.686C1.791 24.419 0 20.419 0 16S1.791 7.582 4.686 4.686 11.581 0 16 0c4.418 0 8.418 1.791 11.314 4.686S32 11.581 32 16z"/><path fill="var(--color2, #afb1b8)" d="M23.269 23.273v-.001h.004v-5.335c0-2.61-.562-4.62-3.613-4.62-1.467 0-2.451.805-2.853 1.568h-.042v-1.324h-2.893v9.711h3.012v-4.809c0-1.266.24-2.49 1.808-2.49 1.545 0 1.568 1.445 1.568 2.572v4.728h3.009zM8.967 13.562h3.016v9.711H8.967v-9.711zM10.474 8.727c-.964 0-1.747.782-1.747 1.747s.782 1.763 1.747 1.763c.964 0 1.747-.799 1.747-1.763s-.783-1.747-1.747-1.747z"/></symbol>
<symbol id="insta" viewBox="0 0 32 32"><path fill="var(--color1, #fff)" d="M29.538 13.538c0 3.739-1.515 7.123-3.965 9.573S19.738 27.076 16 27.076s-7.123-1.515-9.573-3.965-3.965-5.835-3.965-9.573 1.515-7.123 3.965-9.573S12.262 0 16 0s7.123 1.515 9.573 3.965a13.496 13.496 0 013.965 9.573z"/><path fill="var(--color2, #afb1b8)" d="M22.142 11.003c-.029-.654-.135-1.104-.286-1.493a2.997 2.997 0 00-.712-1.091 3.024 3.024 0 00-1.089-.709c-.392-.151-.839-.257-1.493-.286-.659-.031-.868-.039-2.539-.039s-1.88.007-2.537.036c-.654.029-1.104.135-1.493.286a3 3 0 00-1.092.712c-.313.308-.555.68-.709 1.089-.152.392-.257.839-.286 1.493-.031.659-.038.868-.038 2.539s.007 1.88.036 2.537c.029.654.135 1.104.286 1.493.156.413.399.784.712 1.091.308.313.68.555 1.089.709.392.151.839.257 1.493.286.656.029.866.036 2.537.036s1.88-.007 2.537-.036c.654-.029 1.104-.135 1.493-.286a3.15 3.15 0 001.801-1.801c.151-.392.257-.839.286-1.493.029-.656.036-.866.036-2.537s-.002-1.88-.031-2.537zm-1.109 5.025c-.026.601-.127.926-.212 1.142a2.042 2.042 0 01-1.169 1.169c-.216.084-.543.185-1.142.212-.649.029-.844.036-2.486.036s-1.839-.007-2.486-.036c-.601-.026-.926-.127-1.142-.212a1.9 1.9 0 01-.707-.459c-.204-.2-.361-.44-.459-.707-.084-.216-.185-.543-.211-1.142-.029-.649-.036-.844-.036-2.486s.007-1.839.036-2.486c.026-.601.127-.926.211-1.142.099-.267.255-.51.462-.707.199-.204.44-.361.707-.459.216-.084.543-.185 1.142-.212.649-.029.844-.036 2.486-.036 1.645 0 1.839.007 2.486.036.601.026.926.127 1.142.212a1.9 1.9 0 01.707.459c.204.2.361.44.459.707.084.216.185.543.212 1.142.029.649.036.844.036 2.486s-.007 1.835-.036 2.484z"/><path fill="var(--color2, #afb1b8)" d="M16.023 10.378a3.163 3.163 0 000 6.324 3.162 3.162 0 000-6.324zm0 5.213a2.051 2.051 0 110-4.103 2.051 2.051 0 010 4.103zM20.048 10.253a.737.737 0 11-1.475.001.737.737 0 011.475-.001z"/></symbol>
<symbol id="twitter" viewBox="0 0 32 32"><path fill="var(--color1, #fff)" d="M32 16c0 4.418-1.791 8.418-4.686 11.314S20.419 32 16 32s-8.418-1.791-11.314-4.686C1.791 24.419 0 20.419 0 16S1.791 7.582 4.686 4.686 11.581 0 16 0c4.418 0 8.418 1.791 11.314 4.686S32 11.581 32 16z"/><path fill="var(--color2, #afb1b8)" d="M23.273 11.49a6.248 6.248 0 01-1.718.471 2.967 2.967 0 001.312-1.648 5.963 5.963 0 01-1.891.722 2.981 2.981 0 00-5.158 2.039c0 .236.02.464.069.68a8.439 8.439 0 01-6.146-3.119 2.985 2.985 0 00.917 3.985 2.943 2.943 0 01-1.347-.367v.033a2.996 2.996 0 002.389 2.93 2.992 2.992 0 01-.782.098 2.64 2.64 0 01-.565-.051 3.01 3.01 0 002.786 2.077 5.991 5.991 0 01-3.697 1.272 5.59 5.59 0 01-.714-.041 8.393 8.393 0 004.575 1.338c5.487 0 8.487-4.545 8.487-8.485 0-.132-.005-.259-.011-.385a5.95 5.95 0 001.495-1.548z"/></symbol></defs></svg>